<svg width="816" height="512" viewBox="0 0 816 512" version="1.1" xmlns="http://www.w3.org/2000/svg" xmlns:xlink="http://www.w3.org/1999/xlink">
<g id="Canvas" fill="none">
<g id="car-collision">
<g id="Group">
<path id="Vector" d="M 496.548 68.9946L 429.551 156.77L 472.44 54.3432C 473.506 49.0155 477.768 45.952 480.831 45.952C 481.897 45.952 482.829 47.0176 484.96 47.9499L 491.22 51.0134L 497.48 54.0769C 502.941 57.5399 501.876 62.6013 496.548 68.9946ZM 405.71 165.161L 424.49 17.7148C 426.488 7.32568 423.424 -2.35756e-06 416.099 -2.35756e-06L 406.642 -2.35756e-06C 404.644 -2.35756e-06 395.187 -2.35756e-06 395.187 -2.35756e-06C 387.862 -2.35756e-06 384.798 6.26013 386.796 17.7148L 405.71 165.161ZM 431.816 324.994C 438.076 339.645 440.207 349.103 440.207 362.555L 440.207 484.827L 440.207 501.611C 440.207 506.939 436.078 512 429.818 512L 375.475 512C 369.214 512 365.085 507.87 365.085 501.611L 365.085 484.827L 365.085 467.112L 75.3879 467.112L 75.3879 484.827L 75.3879 501.611C 75.3879 506.939 71.2589 512 64.9988 512L 10.3892 512C 4.12902 512 0 507.87 0 501.611L 0 484.827L 0 362.555C 0 348.836 1.99791 338.447 8.39124 324.994L 76.3203 182.876C 83.646 166.093 104.557 152.641 123.338 152.641L 315.67 152.641C 334.451 152.641 355.495 166.36 363.887 182.876L 431.816 324.994ZM 60.6034 318.867L 378.272 318.867L 332.32 220.703C 322.863 201.922 314.605 197.66 294.759 197.66L 144.249 197.66C 141.186 197.66 138.922 197.66 136.924 197.66C 122.272 199.658 114.947 204.986 107.754 220.703L 60.6034 318.867ZM 104.557 389.86C 104.557 371.079 88.8406 356.428 70.0602 356.428C 51.2798 356.428 36.6284 371.079 36.6284 389.86C 36.6284 408.64 51.2798 424.357 70.0602 424.357C 88.8406 424.357 104.557 408.773 104.557 389.86ZM 403.445 389.86C 403.445 371.079 387.728 356.428 368.948 356.428C 350.168 356.428 335.516 371.079 335.516 389.86C 335.516 408.64 350.168 424.357 368.948 424.357C 387.728 424.49 403.445 408.773 403.445 389.86ZM 382.667 166.093L 339.779 63.6668C 337.781 58.3391 334.451 55.2756 331.387 55.2756C 330.322 55.2756 329.389 55.2756 328.324 55.2756C 327.258 55.2756 327.258 56.3412 326.326 56.3412L 320.066 59.4046L 314.738 63.5337C 309.41 66.5971 310.609 71.9249 315.804 78.185L 382.667 166.093ZM 812.085 366.817L 780.65 484.96L 776.521 500.677C 775.456 506.005 769.195 509.068 764.001 508.003L 711.79 494.284C 706.462 493.217 703.398 486.958 704.464 481.764L 708.593 466.047L 713.921 449.263L 455.658 380.268L 455.658 360.424C 455.658 352.031 454.592 342.707 452.594 334.316C 466.313 333.251 478.701 323.927 482.829 309.144C 488.157 291.428 476.569 272.649 458.721 267.321C 447.265 265.323 435.677 268.386 427.286 275.712L 403.178 225.498C 404.243 224.432 405.176 222.434 406.241 221.369L 508.667 102.16C 518.124 90.7053 533.84 84.4451 548.491 83.3796C 553.819 83.3796 557.949 83.3796 562.21 84.4452L 745.219 131.463C 763.999 136.79 780.782 155.571 783.845 173.286L 813.015 328.057C 816.348 343.774 815.415 354.43 812.085 366.817ZM 767.199 312.607L 747.353 206.051C 743.224 185.273 735.898 178.88 717.119 173.552L 571.803 133.727C 564.477 131.729 559.284 131.729 554.088 131.729C 545.697 132.795 538.371 137.989 529.98 147.446L 458.854 229.893L 767.199 312.607ZM 747.353 346.039C 745.355 344.973 743.224 344.973 741.094 344.973C 738.962 344.973 736.964 344.973 734.834 344.973C 721.115 346.039 709.66 355.362 706.597 370.147C 701.269 387.862 711.925 406.641 729.639 411.968C 747.354 417.296 766.135 405.71 771.462 387.86C 776.522 369.88 765.201 351.1 747.353 346.039Z" fill="#130E0D"/>
</g>
</g>
</g>
</svg>
