<svg width="589" height="512" viewBox="0 0 589 512" version="1.1" xmlns="http://www.w3.org/2000/svg" xmlns:xlink="http://www.w3.org/1999/xlink">
<g id="Canvas" fill="none">
<g id="worker-with-shovel">
<g id="Group">
<g id="Group_2">
<path id="Vector" d="M 58.5165 117.036C 90.781 117.036 117.036 90.7848 117.036 58.5178C 117.036 26.2508 90.781 8.30148e-07 58.5165 8.30148e-07C 26.2508 8.30148e-07 4.63338e-06 26.2508 4.63338e-06 58.5178C 4.63338e-06 90.7848 26.2508 117.036 58.5165 117.036Z" transform="translate(136.214 0)" fill="#130E0D"/>
<path id="Vector_2" d="M 27.6127 0.742776C 26.9624 0.0924521 26.0135 -0.1568 25.1291 0.0987748C 24.246 0.350554 23.5691 1.06163 23.3603 1.95614L 0.745753 100.546C -0.952176 107.786 0.271303 115.252 4.19096 121.57C 8.11062 127.889 14.2533 132.303 21.4916 134C 23.5919 134.492 25.739 134.741 27.8746 134.741C 40.8482 134.741 51.9809 125.906 54.9453 113.254L 70.3975 45.2204C 70.5949 44.3677 70.3418 43.4731 69.7219 42.8532L 27.6127 0.742776Z" transform="translate(171.924 377.259)" fill="#130E0D"/>
<path id="Vector_3" d="M 142.004 30.924L 123.387 12.4809L 119.514 13.1198C 114.847 14.1611 112.644 12.7314 110.744 11.1005C 108.843 9.46963 98.2156 0.351172 98.2156 0.351172C 97.521 -0.0587605 96.6721 -0.113153 95.9306 0.205683C 95.1892 0.521989 94.6452 1.1761 94.463 1.96054L 92.2261 11.6445L 5.00544 167.884C 0.753025 173.985 -0.86646 181.375 0.44178 188.693C 1.74875 196.013 5.8291 202.384 11.93 206.634C 16.6252 209.905 22.1188 211.634 27.8174 211.634C 36.9308 211.634 45.4786 207.177 50.685 199.705L 142.524 34.3566C 143.275 33.1597 142.977 31.9134 142.004 30.924Z" transform="translate(0 291.503)" fill="#130E0D"/>
<path id="Vector_4" d="M 331.735 325.266C 331.639 324.771 331.397 324.317 331.041 323.961L 287.785 280.702C 286.797 279.715 285.194 279.715 284.207 280.702L 262.654 302.25L 171.958 211.553L 260.648 128.091C 268.431 120.765 269.686 109.055 263.631 100.245L 214.685 29.0267C 211.442 24.3062 206.549 21.1242 200.94 20.074L 109.602 0.497228C 109.56 0.488372 109.518 0.480784 109.475 0.473193C 108.007 0.159418 106.502 -1.0039e-06 104.991 -1.0039e-06C 100.885 -1.0039e-06 96.8949 1.15388 93.4547 3.33639L 9.99309 56.2581C 4.45015 59.7742 0.855657 65.5335 0.131949 72.0595C -0.587962 78.5868 1.6616 84.9913 6.30244 89.6321L 75.1381 158.468C 79.2007 162.53 84.6007 164.767 90.3473 164.767C 91.9036 164.767 93.5433 164.571 95.2235 164.183L 97.2719 163.708L 249.234 315.668L 227.686 337.216C 226.699 338.204 226.699 339.806 227.686 340.794L 270.943 384.052C 271.298 384.407 271.754 384.65 272.25 384.746C 274.886 385.259 288.737 387.815 302.381 387.815C 315.249 387.815 323.68 385.64 328.15 381.167C 333.452 375.867 335.556 365.065 334.58 348.15C 333.944 337.017 332.098 327.136 331.735 325.266ZM 144.386 178.434L 141.569 181.16L 110.744 150.34L 111.239 148.274C 112.996 140.924 110.871 133.363 105.558 128.049L 55.7119 78.2046L 70.5327 68.8078L 117.756 115.969C 125.078 123.293 129.088 133.003 129.049 143.309C 129.047 143.984 129.314 144.631 129.791 145.107L 140.184 155.498C 141.151 156.466 142.712 156.489 143.708 155.551L 192.145 109.969C 192.544 109.592 192.811 109.095 192.906 108.554L 197.739 80.3113L 217.736 109.403L 144.506 178.313C 144.465 178.356 144.425 178.395 144.386 178.434Z" transform="translate(27.3236 115.319)" fill="#130E0D"/>
<path id="Vector_5" d="M 13.0624 0.573069C 12.0831 -0.232878 10.6522 -0.18353 9.72477 0.688208L 0.796111 9.09054C 0.296348 9.55994 0.00912604 10.2115 0.000269487 10.896C -0.00985229 11.5805 0.257127 12.2397 0.741707 12.7218L 41.4072 53.3873C 41.8867 53.8693 42.5345 54.1287 43.195 54.1287C 43.4278 54.1287 43.6656 54.0983 43.8959 54.03C 44.7803 53.7769 45.4572 53.0595 45.6622 52.1625L 45.6951 52.0258C 48.6455 39.4356 44.0882 26.004 34.0879 17.8054L 13.0624 0.573069Z" transform="translate(215.858 316.137)" fill="#130E0D"/>
<path id="Vector_6" d="M 211.799 100.858L 203.298 84.8373C 202.958 84.1958 202.455 83.6543 201.845 83.2735L 193.023 77.7191C 192.06 77.1118 190.858 76.9284 189.774 77.2105L 179.185 55.4082C 178.968 54.9768 178.654 54.5997 178.268 54.3075C 177.104 53.4269 175.478 53.227 174.129 53.8039L 169.152 55.9396L 164.858 45.8874C 164.472 44.9815 163.686 44.3072 162.73 44.0642L 148.452 40.4242L 144.626 24.4115C 144.418 23.5423 143.853 22.8034 143.07 22.3733L 121.403 10.5118C 120.466 10.0007 119.339 9.99434 118.398 10.4916L 99.222 20.6905L 86.4876 20.2211L 66.0757 0.867031C 65.056 -0.0970679 63.5238 -0.276758 62.3104 0.426706L 34.4755 16.5583C 33.7835 16.9581 33.2698 17.6084 33.0345 18.3764L 25.1546 44.3324L 10.5401 61.8684C 10.2313 62.2379 10.0137 62.6719 9.89734 63.1387L 0.0918645 103.029C -0.140936 103.971 0.0741495 104.969 0.67513 105.735C 1.27611 106.499 2.19214 106.947 3.16384 106.947L 208.135 106.947C 209.585 106.947 210.946 106.177 211.693 104.933C 212.437 103.69 212.476 102.13 211.799 100.858Z" transform="translate(376 405)" fill="#130E0D"/>
</g>
</g>
</g>
</g>
</svg>
