<?xml version="1.0" standalone="no"?>
<!DOCTYPE svg PUBLIC "-//W3C//DTD SVG 20010904//EN"
 "http://www.w3.org/TR/2001/REC-SVG-20010904/DTD/svg10.dtd">
<svg version="1.0" xmlns="http://www.w3.org/2000/svg"
 width="548.000000pt" height="548.000000pt" viewBox="0 0 548.000000 548.000000"
 preserveAspectRatio="xMidYMid meet">
<metadata>
Created by potrace 1.11, written by Peter Selinger 2001-2013
</metadata>
<g transform="translate(0.000000,548.000000) scale(0.100000,-0.100000)"
fill="#000000" stroke="none">
<path d="M888 5281 c-79 -26 -124 -55 -193 -125 -58 -58 -64 -70 -144 -266
-151 -370 -140 -350 -169 -339 -12 5 -33 11 -45 13 -12 2 -53 13 -92 23 -38
11 -79 18 -90 18 -63 -5 -118 -43 -140 -97 -18 -45 -20 -193 -4 -251 22 -79
105 -141 194 -146 l25 -1 -22 -52 c-22 -56 -65 -196 -73 -238 -3 -14 -7 -34
-9 -45 -6 -31 -19 -126 -22 -165 -9 -102 -4 -1094 6 -1130 14 -52 64 -108 115
-131 34 -15 69 -18 213 -18 97 0 186 5 205 11 50 17 95 55 119 101 24 47 25
55 27 223 l1 121 670 0 c480 0 670 -3 667 -11 -3 -6 -39 -96 -82 -199 -64
-154 -81 -187 -94 -181 -36 15 -217 61 -231 58 -80 -13 -97 -22 -131 -72 -22
-33 -24 -45 -24 -151 0 -128 11 -166 62 -211 39 -35 67 -49 110 -56 21 -3 41
-8 44 -10 4 -2 -6 -35 -21 -72 -28 -70 -69 -213 -75 -267 -2 -16 -7 -43 -11
-60 -4 -16 -9 -295 -11 -620 -3 -555 -2 -592 16 -630 23 -52 80 -101 132 -115
35 -10 360 -9 407 1 25 5 90 69 107 106 22 45 23 53 24 213 l1 126 1168 -1
1167 0 2 -134 c2 -155 13 -205 55 -250 58 -62 92 -71 289 -71 172 0 177 1 230
28 40 20 61 39 84 76 l30 49 0 561 c0 309 -4 587 -7 618 -16 128 -67 323 -104
400 -10 21 -16 40 -13 42 2 3 24 7 47 10 76 9 145 67 170 143 6 18 10 78 9
135 -2 97 -4 105 -32 144 -52 73 -113 81 -273 36 l-104 -30 -15 37 c-77 182
-96 229 -100 249 -3 12 -9 22 -12 22 -4 0 -8 6 -8 13 -1 21 -81 206 -104 240
-32 48 -103 110 -160 142 -94 51 -125 54 -497 55 -190 0 -348 3 -351 6 -3 2
-6 114 -7 247 -1 133 -5 258 -8 277 -4 19 -9 49 -12 65 -3 17 -7 37 -9 45 -2
8 -7 31 -10 50 -6 32 -29 113 -43 150 -3 8 -6 17 -7 20 -1 3 -9 22 -18 44 -22
50 -21 56 6 57 59 2 95 18 145 63 40 36 55 84 58 191 2 89 0 106 -22 151 -20
43 -32 55 -70 72 -55 23 -80 22 -201 -12 -51 -14 -98 -26 -106 -26 -8 0 -22
21 -32 48 -10 26 -26 65 -35 87 -21 49 -50 119 -86 205 -14 36 -36 85 -47 110
-11 25 -20 50 -21 55 -3 20 -50 80 -95 123 -25 24 -80 60 -120 80 l-75 37
-1030 2 c-974 2 -1034 1 -1088 -16z m1997 -161 c58 -19 112 -61 147 -116 17
-27 31 -51 31 -54 -1 -3 3 -14 7 -25 24 -61 74 -185 89 -220 10 -22 25 -60 35
-85 10 -25 25 -57 32 -72 8 -15 14 -29 14 -30 -2 -4 8 -30 67 -173 29 -71 56
-143 58 -158 8 -41 -21 -94 -57 -106 -21 -8 -441 -11 -1355 -11 -1182 0 -1327
2 -1354 16 -38 19 -59 66 -49 108 11 43 262 657 319 778 41 87 111 143 197
157 20 3 429 6 908 5 690 0 879 -3 911 -14z m-1660 -1514 c25 -27 25 -30 25
-201 l0 -173 -29 -24 -29 -25 -327 1 -327 1 -22 27 c-20 26 -22 37 -21 195 1
192 7 208 68 220 21 5 173 7 338 7 l300 -2 24 -26z m2163 1 c26 -26 26 -27 27
-189 1 -174 -7 -212 -48 -227 -11 -4 -163 -7 -336 -7 -336 1 -352 4 -366 51
-4 16 -8 230 -6 321 1 32 32 65 69 72 18 4 168 7 333 6 l300 -1 27 -26z m1082
-649 c65 -30 103 -65 129 -116 21 -42 84 -192 87 -207 1 -5 12 -32 25 -60 12
-27 23 -52 24 -55 5 -13 18 -48 30 -75 22 -49 126 -306 146 -360 29 -75 13
-133 -43 -156 -20 -8 -381 -11 -1351 -11 -1198 0 -1327 1 -1355 16 -69 36 -69
82 1 246 6 14 11 27 12 30 1 3 5 14 10 25 5 11 23 56 42 100 18 44 33 85 33
92 0 7 5 13 11 13 5 0 8 4 5 8 -3 5 2 22 10 38 9 16 29 63 45 104 17 41 36 89
44 107 8 17 15 35 15 39 0 5 17 41 37 82 47 94 108 145 190 158 21 3 39 7 40
7 1 1 397 2 880 1 l879 -1 54 -25z m-2255 -1479 c88 5 517 3 536 -2 53 -13 60
-42 60 -223 -1 -180 -6 -198 -56 -213 -16 -6 -167 -9 -335 -9 -331 1 -340 3
-357 56 -5 15 -9 98 -8 184 0 150 1 158 24 182 24 25 55 34 101 28 14 -2 30
-3 35 -3z m2733 -23 c26 -25 26 -27 27 -183 1 -87 -3 -171 -8 -186 -17 -52
-34 -55 -380 -55 l-318 1 -25 30 c-25 30 -25 30 -22 203 3 197 6 203 80 213
24 3 173 5 331 5 l289 -1 26 -27z"/>
</g>
</svg>
